<?xml version="1.0" standalone="no"?>
<!DOCTYPE svg PUBLIC "-//W3C//DTD SVG 20010904//EN"
 "http://www.w3.org/TR/2001/REC-SVG-20010904/DTD/svg10.dtd">
<svg version="1.0" xmlns="http://www.w3.org/2000/svg"
 width="512.000000pt" height="512.000000pt" viewBox="0 0 512.000000 512.000000"
 preserveAspectRatio="xMidYMid meet">

<g transform="translate(0.000000,512.000000) scale(0.100000,-0.100000)"
fill="#000000" stroke="none">
<path d="M2321 5110 c-1340 -130 -2361 -1283 -2318 -2620 13 -389 97 -726 268
-1069 249 -502 647 -900 1150 -1150 815 -406 1779 -350 2539 147 297 194 579
482 771 788 74 116 184 342 234 478 51 138 110 376 131 531 23 157 26 521 6
660 -59 415 -191 769 -410 1099 -92 140 -185 254 -315 385 -399 403 -895 653
-1462 737 -122 18 -466 26 -594 14z m317 -686 c47 -19 88 -58 113 -106 18 -36
19 -72 19 -1003 0 -531 3 -965 8 -965 4 0 120 113 257 250 232 233 254 252
303 266 66 20 115 12 177 -27 52 -33 95 -109 95 -169 0 -94 6 -87 -468 -563
-246 -247 -463 -457 -482 -467 -54 -27 -96 -33 -153 -20 -51 12 -64 24 -506
464 -304 303 -459 464 -472 491 -24 51 -24 128 0 181 31 68 117 124 191 124
76 0 98 -16 360 -277 141 -139 259 -253 263 -253 4 0 7 434 7 965 0 931 1 967
19 1003 53 102 169 148 269 106z m816 -3095 c162 -41 210 -254 83 -366 -20
-18 -53 -37 -74 -42 -52 -15 -1754 -15 -1806 0 -21 5 -54 24 -74 42 -124 109
-82 315 74 364 52 16 1734 18 1797 2z"/>
</g>
</svg>
